<svg width="55" height="55" viewBox="0 0 55 55" fill="none" xmlns="http://www.w3.org/2000/svg">
<path d="M27.5 4.58337C31.1467 4.58337 34.6441 6.03203 37.2227 8.61066C39.8013 11.1893 41.25 14.6866 41.25 18.3334V20.625H50.4166V25.2084H47.7423L46.0075 46.0236C45.9598 46.5962 45.6987 47.1301 45.2759 47.5193C44.8532 47.9085 44.2996 48.1247 43.725 48.125H11.275C10.7003 48.1247 10.1468 47.9085 9.72403 47.5193C9.30127 47.1301 9.04017 46.5962 8.99248 46.0236L7.2554 25.2084H4.58331V20.625H13.75V18.3334C13.75 14.6866 15.1986 11.1893 17.7773 8.61066C20.3559 6.03203 23.8533 4.58337 27.5 4.58337ZM29.7916 29.7917H25.2083V38.9584H29.7916V29.7917ZM20.625 29.7917H16.0416V38.9584H20.625V29.7917ZM38.9583 29.7917H34.375V38.9584H38.9583V29.7917ZM27.5 9.16671C25.1482 9.16671 22.8863 10.0706 21.1823 11.6915C19.4782 13.3124 18.4624 15.5262 18.3448 17.875L18.3333 18.3334V20.625H36.6666V18.3334C36.6666 15.9816 35.7627 13.7197 34.1419 12.0157C32.521 10.3116 30.3072 9.29576 27.9583 9.17817L27.5 9.16671Z" fill="#2FFF8F"/>
</svg>
