<svg id="Layer_1" data-name="Layer 1" xmlns="http://www.w3.org/2000/svg" viewBox="0 0 239.72 318.22"><title>cat</title><path d="M923.67,26.17a5.38,5.38,0,0,0,1.14.54,15.4,15.4,0,0,1,7.31,2.93c3,2.45,4.51,5.56,3.94,9.38-.82,5.36-3.16,9.89-7.79,13.06-2.43,1.67-4.78,3.47-7,5.35a27.43,27.43,0,0,0-10.32,21.14A52.31,52.31,0,0,0,914,96.9a113.09,113.09,0,0,0,9.82,20.85c2.26,3.88,5,7.47,7.31,11.32,3.25,5.44,6.52,10.89,9.36,16.55a143.37,143.37,0,0,1,6.92,16.13,155,155,0,0,1,5.17,17.65,132.5,132.5,0,0,1,3,18.42,111.83,111.83,0,0,1-.11,17.07c-.48,7.12-1.22,14.24-2.28,21.29a90.18,90.18,0,0,1-7.75,26.12,36.6,36.6,0,0,1-8,11.28,2.26,2.26,0,0,0-.55,1.19,47.31,47.31,0,0,1-7.87,19.08,39.28,39.28,0,0,1-11.52,11.09,2.6,2.6,0,0,0-1.39,3c1,6.58-2.07,11.36-8,13.9a37.77,37.77,0,0,1-7,2.31c-4.31.91-8.69,1.48-13,2.28a93.85,93.85,0,0,0-9.75,2.09c-4.85,1.46-9.57,3.29-14.38,4.88a11.63,11.63,0,0,1-3.48.5,60.28,60.28,0,0,1-8.51-.24c-8.41-1.18-10.54-12.26-6.75-16.86a45.31,45.31,0,0,1,9.12-8.65l5.44-3.76c-1.15-.55-2.23-1.11-3.35-1.6-2-.87-4.1-1.59-6.06-2.58s-3.74-.06-5.52.63c-.49.19-.92.63-1.41.72-1.84.31-2.47,1.56-2.94,3.18a138.26,138.26,0,0,1-10.33,25.81,32.32,32.32,0,0,1-7.78,10.2,12.3,12.3,0,0,1-6.6,3.16c-.21,0-.39.3-.58.47h-5.16a7.15,7.15,0,0,0-1.41-.59,13.4,13.4,0,0,1-9.77-6.91,6.7,6.7,0,0,1,.18-7c1.23-2.15,2.8-4.12,3.82-6.35,2-4.37,3.78-8.87,5.58-13.34a1.51,1.51,0,0,0-.51-1.24,15.71,15.71,0,0,1-4.13-5.6,5.91,5.91,0,0,1,.3-5.35,19.18,19.18,0,0,1,6-7.32c1.36-1,2.72-2,4-3.11a2.63,2.63,0,0,0,.87-1.39A154.9,154.9,0,0,0,817.55,264a4.12,4.12,0,0,0-2.81-4.55c-4.37-2-8-5-11.88-7.82-1-.7-1.82-1.57-3-2.61-.66,3.19-1.47,6-1.81,8.89-.93,7.76-1.54,15.56-2.51,23.32q-1.29,10.42-3.1,20.77a149.31,149.31,0,0,1-5.7,22.7c-1.39,4.11-3,8.18-6.56,10.95a10.71,10.71,0,0,1-8.48,2.41c-2.91-.49-6-.93-8.58-2.18-4.66-2.23-6.91-6.26-4.08-11.67,2.36-4.51,3.42-9.27,4.68-14,1.63-6.16,3.11-12.35,4.69-18.52a117.28,117.28,0,0,0,3.2-20.05c1.38-18,.62-35.89-1-53.8-.34-3.64-.67-7.29-1.14-10.91a15.77,15.77,0,0,0-1.12-3.17,73.82,73.82,0,0,1-4-26.93,131,131,0,0,1,3.85-28.43c.23-1,0-1.32-.77-1.92a40.51,40.51,0,0,1-6.06-5.24,67.61,67.61,0,0,1-5.41-7.36,45.16,45.16,0,0,1-7.06-15.23c-.11-.47-.27-.94-.43-1.51-2.08.37-4.14.6-6.11,1.12a85,85,0,0,0-9.51,3A61.09,61.09,0,0,0,726,124.9c-.62.34-1.37.94-1.88,0s.16-1.43.92-1.9a42.55,42.55,0,0,1,11.42-5.35c2.91-.77,5.84-1.45,8.75-2.17l2.88-.68-.66-5c-3.53,0-7-.06-10.46,0a29.24,29.24,0,0,0-5.53.59c-4.46,1-9,1.9-13.15,3.85a5.52,5.52,0,0,1-2,.06v-1.08c.3-.26.56-.62.91-.74,3-1,6-2.1,9.07-3,6.58-2,13.32-2.22,20.11-1.73.26,0,.52,0,.82,0,0-1.32.07-2.53,0-3.73,0-.29-.63-.68-1-.75-1.82-.36-3.67-.55-5.48-.94a55,55,0,0,0-18.18-.49,38.38,38.38,0,0,0-4.17,1c-.72.17-1.52.36-1.71-.7s.51-1.21,1.28-1.42a50.21,50.21,0,0,1,18.67-1.17c3.48.35,6.93,1,10.45,1.59a2.17,2.17,0,0,0,.2-.52c.48-7,.93-13.89,1.44-20.84a50.5,50.5,0,0,0-1-14.57c-1.61-7.31-3.47-14.56-5.31-21.82-.58-2.27-1.5-4.45-2.14-6.7a5.18,5.18,0,0,1,.3-2,9.25,9.25,0,0,1,1.61.55c1.38.76,2.69,1.61,4.06,2.39,3.27,1.87,6.57,3.68,9.84,5.56q5.64,3.25,11.23,6.58c1.61.95,3.22,1.92,4.77,3a2.46,2.46,0,0,0,3-.06,58.33,58.33,0,0,1,6.86-3.62c8.17-3.43,16.64-3.51,25.12-1.55A48.64,48.64,0,0,1,815.3,51a1.78,1.78,0,0,0,2.17-.29c2.15-1.82,4.3-3.63,6.49-5.39,4.36-3.51,8.72-7,13.14-10.45,2.51-1.95,5.16-3.74,7.75-5.59A9.45,9.45,0,0,1,846.73,28a2.47,2.47,0,0,1,1.86-.08c.34.21.44,1.14.35,1.7-.52,2.93-1.14,5.85-1.71,8.78-1.66,8.51-3.29,17-5,25.54-.72,3.62.28,7,1.36,10.37,2.28,7.06,4.56,14.11,4.46,21.72,2-.37,3.91-.78,5.79-1,7.43-.94,14.87-1.24,22.29.16a7.27,7.27,0,0,1,2.23.84c.29.16.6.89.48,1a1.56,1.56,0,0,1-1.17.56c-2-.25-4-.68-6-.9a79.1,79.1,0,0,0-20.95.91,9.15,9.15,0,0,0-2,.62.94.94,0,0,0-.45.71c0,1.2,0,2.41,0,3.7.83,0,1.54,0,2.25,0A59.85,59.85,0,0,1,868.13,104a83.47,83.47,0,0,1,10.39,3.6c.36.14.47,1,.7,1.46-.46.16-1,.56-1.35.44-2.83-1-5.59-2.17-8.45-3.05a40,40,0,0,0-6-1.14,67.74,67.74,0,0,0-15.29-.43l-.32,4.87c2.4.56,4.65,1,6.83,1.62,3.48,1.05,7,2.09,10.35,3.45a32.71,32.71,0,0,1,5.75,3.43c.36.24.34,1,.5,1.59-.51.05-1.13.3-1.53.1-3.18-1.6-6.32-3.29-9.47-5a2.26,2.26,0,0,0-.52-.17c-3.35-.83-6.71-1.68-10.07-2.48a16.13,16.13,0,0,0-2.1-.22c-.36,2.14-.58,4.21-1.09,6.2-1.09,4.33-2.33,8.63-3.5,12.94a7.49,7.49,0,0,1-.33,1.17c-1.18,2.4.15,4,1.86,5.27,3.23,2.47,6.52,4.87,9.82,7.26,3,2.14,6.07,4.13,9,6.35,3.09,2.35,6,4.89,9.06,7.33,2.06,1.66,4.16,3.27,6.19,5,3.14,2.59,6.23,5.24,9.35,7.85,1,.84,2.08,1.58,3,2.48,4.12,4,8.41,7.83,12.24,12.08a144.23,144.23,0,0,1,10.27,13,182.42,182.42,0,0,1,13.19,21.16c.43.82.77,1.7,1.15,2.55l.43.08c.8-2,1.78-3.92,2.37-6,2-6.76,1.87-13.67,1.08-20.59a111,111,0,0,0-7-27.48,78.44,78.44,0,0,0-6.93-13.87q-5.13-8.09-9.83-16.44c-2.87-5.09-5.59-10.28-8.18-15.52a137.81,137.81,0,0,1-9.07-23.43,83.19,83.19,0,0,1-3.34-25,63.57,63.57,0,0,1,5.09-23.29A55.5,55.5,0,0,1,901,36.89a27.76,27.76,0,0,1,9.56-7.75c2.18-1,4.54-1.6,6.81-2.41a4.65,4.65,0,0,0,.88-.56Zm-74.15,304a13.76,13.76,0,0,0,2.94,1.12c3.71.49,7.42.78,11.08-.47,4.41-1.5,8.8-3.05,13.26-4.39a89.25,89.25,0,0,1,9.18-2.14c5-.92,10-1.5,15-2.57a33.66,33.66,0,0,0,8-3A9.18,9.18,0,0,0,913.9,313a13.38,13.38,0,0,0-.13-6.71c-.19-.78-.37-1.55.51-2a36.31,36.31,0,0,0,8.36-6.22,41.77,41.77,0,0,0,7.61-10.2,47.18,47.18,0,0,0,4.85-14.7,1.84,1.84,0,0,1,.6-1.14c2.76-1.89,4.49-4.7,6.09-7.46a75.68,75.68,0,0,0,8.15-22.26,183.66,183.66,0,0,0,3.43-25.49c.82-10.88.59-21.66-1.77-32.37A158.36,158.36,0,0,0,944.1,159c-1.82-4.51-3.75-9-6-13.31-2.39-4.72-5.06-9.31-7.79-13.85-3.46-5.78-7.21-11.38-10.65-17.17a85.86,85.86,0,0,1-8.61-19.92c-2-6.83-3-13.75-1.86-20.88,1.35-8.59,6.09-15,12.74-20.25,1.75-1.38,3.64-2.59,5.47-3.87a15.4,15.4,0,0,0,5.68-7.67c2.22-6.17.11-10.36-6.13-12.37-6.4-2.06-12.38-.68-17.93,2.91a18.71,18.71,0,0,0-2.89,2.18,49.82,49.82,0,0,0-9.09,11.76A61.26,61.26,0,0,0,890.28,66a67.71,67.71,0,0,0,.21,22.94c1.84,10.94,5.65,21.23,10.33,31.21,2.23,4.76,4.72,9.4,7.26,14,2.74,5,5.68,9.79,8.52,14.69,2.39,4.11,4.86,8.18,7.1,12.37,3.14,5.87,5.09,12.22,6.92,18.59a94.46,94.46,0,0,1,3.51,20.11c.44,7.19.09,14.3-2.71,21a32.31,32.31,0,0,1-3.15,5.33,1.72,1.72,0,0,1-1.46.51c-.3-.06-.5-.8-.64-1.27a12.3,12.3,0,0,0-.37-1.69c-2.12-4-4.08-8.13-6.49-12-3.24-5.16-6.66-10.24-10.33-15.1a151.79,151.79,0,0,0-11-13c-3.73-3.91-7.86-7.44-11.91-11-3.22-2.84-6.56-5.53-9.9-8.23-4.51-3.67-9-7.35-13.62-10.9-3-2.29-6-4.46-9.22-6.47a64,64,0,0,1-11.83-9.23,4.21,4.21,0,0,1-1.26-4.39c1.21-4.49,2.5-9,3.64-13.45.66-2.63,1.08-5.33,1.67-8.31-1.94,0-3.52.07-5.09,0-.41,0-.79-.62-1.19-1a6.24,6.24,0,0,1,1.16-1.19c.3-.18.79,0,1.2,0h4.07l.31-4.47c-2,.32-3.68.68-5.42.86-.5,0-1.37-.27-1.5-.62a1.12,1.12,0,0,1,1-1.53c.89-.13,1.77-.36,2.66-.49,3.55-.48,3.55-.46,3.26-4.07,0-.08-.07-.16-.16-.36a12.56,12.56,0,0,0-1.39.23c-1.67.47-3.32,1-5,1.41-.37.08-.88-.44-1.32-.69.27-.48.45-1.22.85-1.38,1.49-.58,3-1,4.59-1.43.78-.21,1.57-.36,2.5-.58a43.37,43.37,0,0,0-.54-6.11c-1.19-5.13-2.57-10.22-4-15.3-.92-3.41-2.08-6.77-1.55-10.38.28-1.87.58-3.74.94-5.6,1.25-6.43,2.54-12.84,3.81-19.26.55-2.8,1.09-5.61,1.64-8.41a18.56,18.56,0,0,0-3.62,2.23c-2.48,1.84-5,3.65-7.43,5.55-3.53,2.74-7,5.54-10.5,8.35-2.16,1.73-4.27,3.52-6.38,5.32a3,3,0,0,1-3.64.58A48.25,48.25,0,0,0,806,50,38.24,38.24,0,0,0,781,52a36.43,36.43,0,0,0-5.22,3c-1.51,1-2.82,1.38-4.53.26-2.82-1.87-5.77-3.54-8.69-5.24-3.22-1.87-6.48-3.66-9.69-5.53-1.62-.94-3.16-2-4.77-3s-3.26-1.81-5-2.79c.11.5.17.9.29,1.27a195.56,195.56,0,0,1,6.14,23.83,70.75,70.75,0,0,1,.77,20.65c-.61,5.29-.66,10.64-1,16,0,.83.12,1.29,1.06,1.5,1.65.38,3.25,1,4.89,1.43.87.24,1.43.67,1.18,1.61s-1,.75-1.77.56c-1.74-.46-3.49-.9-5.26-1.36a25.05,25.05,0,0,0,0,3,1.42,1.42,0,0,0,.84.92c1.36.42,2.75.75,4.15,1,.92.19,1.39.62,1.12,1.59s-1,.71-1.66.57c-1.34-.3-2.66-.67-4.26-1.07l.59,4.4c1.24,0,2.36,0,3.48,0,.9,0,1.68.06,1.64,1.24s-1,1-1.68,1c-1,0-1.92,0-3,0,1.26,6.35,4.25,11.53,7.58,16.51a60.81,60.81,0,0,0,6.06,7.69,19.8,19.8,0,0,0,5,3.61c1.47.82,1.69,1,1.35,2.65-1,5-2.25,10-3,15.13a99.38,99.38,0,0,0-.62,26.24,51.61,51.61,0,0,0,3.52,14.55c1.32,3.06,2.74,6.08,4.34,9,2.13,3.89,4.34,7.76,6.77,11.48,2.23,3.41,4.8,6.6,7.23,9.88a82.08,82.08,0,0,0,11.51,12.56c1.84,1.63,3.76,3.17,5.65,4.75a55.25,55.25,0,0,0,11.23,7.18c0-.57,0-1,0-1.44-.44-4.82-.61-9.68-1.39-14.44q-2-12.34-4.75-24.58c-1-4.74-2.66-9.35-4.05-14-.29-1-.3-1.89.71-2.24.26-.09,1.14.87,1.34,1.48,1.23,3.77,2.5,7.54,3.47,11.38a233.4,233.4,0,0,1,6.09,31.9,138.12,138.12,0,0,1,.4,27.5,145.83,145.83,0,0,1-8.75,38.15c-2.43,6.48-4.78,13-9,18.69a5.24,5.24,0,0,0,1.8,7.76q.11-.61.21-1.2a12.7,12.7,0,0,1,3.57-6.83c.27-.28.91-.21,1.38-.31a14.41,14.41,0,0,1-.19,1.47c0,.18-.32.3-.48.46a11.28,11.28,0,0,0-3,7.24,1,1,0,0,0,.3.8,9.86,9.86,0,0,0,4.74,1.5c0-3.39,1.6-6,3.59-8.37.29-.35,1-.36,1.49-.53a4.37,4.37,0,0,1-.26,1.62c-.55.91-1.37,1.67-1.93,2.58a7.84,7.84,0,0,0-1.27,4.83c4.47.84,8.06-.87,11.13-3.74a32,32,0,0,0,7.11-10.71c2.67-6.06,5.24-12.16,7.49-18.38a88.49,88.49,0,0,0,5.16-22.9,336.41,336.41,0,0,1,5.91-41.27,82.49,82.49,0,0,1,8.71-23.18c.23-.43.9-.61,1.37-.91.18.64.62,1.32.5,1.89a10.73,10.73,0,0,1-1.19,2.4,76.05,76.05,0,0,0-7.59,22c-1.53,8.85-2.82,17.75-4.19,26.63-1.3,8.39-1.2,17-3.32,25.24a3.68,3.68,0,0,0,0,.72c.36-.1.62-.15.87-.24a2.69,2.69,0,0,0,.59-.29,8.36,8.36,0,0,1,9-.2c1.63.88,3.42,1.47,5.14,2.19a13,13,0,0,0-1.49-2.64,46,46,0,0,1-6.91-16.62,61.88,61.88,0,0,1-.32-25.85,46.81,46.81,0,0,1,6.54-16.92,56.67,56.67,0,0,1,5.67-7.31,28.44,28.44,0,0,1,5.73-4.63,64.3,64.3,0,0,1,6.81-3.22c.33-.15.66-.29,1-.45,2.15-1.1,4.26-2.25,6.45-3.25.4-.19,1.08.26,1.62.41-.19.59-.2,1.42-.6,1.72a19.28,19.28,0,0,1-3.17,1.7c-2.36,1.12-4.74,2.17-7.09,3.29a29,29,0,0,0-4.39,2.29,35.82,35.82,0,0,0-7.77,7.34,43.39,43.39,0,0,0-7.35,14.48,58.05,58.05,0,0,0-2.1,22.4,49.25,49.25,0,0,0,3.86,15.84,85,85,0,0,0,5.49,9.7,12.29,12.29,0,0,0,3.4,3.38c1.26.86,1.54,1.67.24,2.56-1.54,1.06-3.12,2.07-4.74,3a44.28,44.28,0,0,0-11.16,9.38c-1.43,1.63-2.55,4.17-1.73,5.88a10.5,10.5,0,0,1,6.23-4.41,4.5,4.5,0,0,1,1.62.33c-.41.45-.74,1.14-1.25,1.31a10.21,10.21,0,0,0-4.43,2.7c-2.11,2.29-2.17,2.95-.56,5.22.18.26.4.5.64.8A11.09,11.09,0,0,1,855,324c.7-.23,1.54-.51,1.77.52s-.61,1-1.29,1.18A9,9,0,0,0,849.52,330.2Zm-86.42,2.69a12.71,12.71,0,0,1,3.06-8.18,3,3,0,0,1,.91-.49,5.27,5.27,0,0,1,.39,1.18c0,.2-.3.43-.44.65-1.52,2.4-2.67,4.91-2.4,8l4.52,1.13c-.23-3.4,1.33-5.94,3-8.41.23-.33.82-.4,1.24-.6,0,.48.24,1.05.06,1.43-.42.89-1.06,1.67-1.53,2.54a8.67,8.67,0,0,0-1.13,5.79c1.71-.28,3.36-.52,5-.81,2.34-.41,3.93-2,5.28-3.72,2.07-2.68,3.13-5.86,4.14-9a169.29,169.29,0,0,0,5.84-24.61c1.08-6.87,2.15-13.75,2.76-20.67.83-9.5,1.54-19,3.92-28.28a2.46,2.46,0,0,0-.89-2.67c-2.46-2.49-5-4.94-7.18-7.66-3.17-3.94-6.19-8-9.07-12.18-2.17-3.13-4-6.48-6-9.74-.74-1.22-1.43-2.47-2.25-3.89.51,6.91,1,13.53,1.48,20.16a292.68,292.68,0,0,1,.25,33.64,136.27,136.27,0,0,1-4.31,28.88c-2.21,8.14-4.16,16.34-6.29,24.5a17.39,17.39,0,0,1-1.38,3.17c-.48,1-1.12,2-1.51,3C759.47,329,760.45,331.72,763.1,332.89Zm43-30.42c1.1-1.32,2.12-2.6,3.21-3.82s2.19-1.27,3.13-.45l1.68-7.12a18.44,18.44,0,0,0-7.53,7.26C805.92,299.55,805,301,806.07,302.47Zm3.58,4.65c.87-2.77,1.67-5.32,2.5-8a6.84,6.84,0,0,0-4.24,3.7c-1,1.68-.75,2.3.76,3.56C808.91,306.59,809.17,306.77,809.65,307.12Z" transform="translate(-716.23 -26.17)"/><path d="M843.31,38.84q-3.36,16-6.73,32.06l-.35.06a60.68,60.68,0,0,1-3.63-6.53c-.44-1.05.06-2.49.13-3.75,0-.44,0-.87.08-1.56L826,61.74a12.78,12.78,0,0,1,1.62-8.27,37.4,37.4,0,0,1,10.49-11.38c1.58-1.21,3.21-2.36,4.81-3.54ZM836,67.28c1.82-8.59,3.62-17.11,5.41-25.63l-.29-.23c-2.47,2.1-5.05,4.09-7.39,6.34A22.62,22.62,0,0,0,828,56a35.25,35.25,0,0,0-1,3.81l7.41-2.87c-.12,1.31-.18,2.25-.29,3.19C833.82,62.67,833.6,65.22,836,67.28Z" transform="translate(-716.23 -26.17)"/><path d="M762.36,66.55l-6.1-2.83c.19,4-.66,7.5-3.4,10.38-1.67-10.07-2.54-20.3-6.5-29.85C753.52,46.73,763.55,56.76,762.36,66.55Zm-7-4.91L761,64.32c.25-6.63-6.72-14.25-11.63-16.87q2.19,11.2,4.48,22.89C755.4,67.6,754.59,64.57,755.38,61.64Z" transform="translate(-716.23 -26.17)"/><path d="M796.9,127.15c-.9,2.7-3.15,4.07-5.73,4.8a5.68,5.68,0,0,1-5.71-2c-1.13-1.26-1.61-3.14-2.22-4.81-.13-.36.41-1,.64-1.47.33.4.83.75,1,1.2.45,1.53.88,3,2.25,4,2.77,2,4.41,1.3,6.65-.43a7,7,0,0,0,2.27-4.33,5.44,5.44,0,0,1,.85-1.51c.35.5.91.94,1,1.49.74,3.24,2.93,4.91,6,5.68,1.08.27,3.81-1.13,4.35-2.28.45-1,.66-2,1.09-3a7.15,7.15,0,0,1,1-1.35c.23.53.69,1.08.64,1.58-.76,6.62-6.23,8.37-11.13,5.54C798.68,129.6,797.91,128.25,796.9,127.15Z" transform="translate(-716.23 -26.17)"/><path d="M793.52,106.72a4.67,4.67,0,0,1,1,.15,5.58,5.58,0,0,0,4.08-.08,4,4,0,0,1,1.46-.24,2,2,0,0,1,2.18,2.06c.16,2-.93,3.42-2,4.86a4.36,4.36,0,0,1-1.75,1.62c-1,.34-2.26.67-3,.26a8.83,8.83,0,0,1-4.77-5.34C790.08,108,791.16,106.65,793.52,106.72Zm7.05,1.79a17.43,17.43,0,0,1-2,.33c-1.33.07-2.66.09-4,.09-.4,0-.79-.21-1.19-.25-1-.12-1.47.41-.87,1.21a21.81,21.81,0,0,0,3.25,3.47,1.86,1.86,0,0,0,1.83,0C798.94,112.11,800.32,110.83,800.57,108.51Z" transform="translate(-716.23 -26.17)"/><path d="M774.09,109a35,35,0,0,1-4.81-.51,30.2,30.2,0,0,1-4.47-1.67,24.48,24.48,0,0,1-7-4.5,61.85,61.85,0,0,1-4.65-4.9,39.16,39.16,0,0,1-4.9-7.85c-.43-.81-.77-1.69-1.14-2.54-1-2.28-2.07-4.5-2.83-6.87A15.66,15.66,0,0,1,744,76c0-.13.3-.37.49-.41a83.77,83.77,0,0,1,13.65-2.33,48.69,48.69,0,0,1,11.63.55c3.8.66,7.62,1.21,11.26,2.73,2.71,1.13,5.37,2.47,8,3.76,1.77.86,3.52,1.79,5.27,2.69,2.2,1.13,4.22.47,6.26-.69,5.06-2.88,10.11-5.78,15.65-7.25a67.21,67.21,0,0,1,14.1-2.34,74.73,74.73,0,0,1,19.29,1.94.88.88,0,0,1,.5.67c.05,1.3,0,2.6,0,3.89a2.79,2.79,0,0,1-.25.94c-.53,1.32-1.13,2.6-1.63,3.93a51.7,51.7,0,0,1-4.62,9.79,33.06,33.06,0,0,1-12.43,11.85c-1.48.78-3.08,1.26-4.61,1.93-3.15,1.37-6.43,1-9.66.91a11.37,11.37,0,0,1-3.39-1.19,17,17,0,0,1-7.28-5.41A25.49,25.49,0,0,1,803.84,98c-1-2-2-4-2.91-6.09a3,3,0,0,0-2.17-1.8c-1.68-.32-3.4-.53-4.86.77a6.4,6.4,0,0,0-1.35,2c-.54,1.12-.94,2.33-1.42,3.48a25.53,25.53,0,0,1-3.37,6,16.27,16.27,0,0,1-8.62,5.82c-.24.07-.57.06-.72.24-.67.8-1.5.46-2.26.52s-1.38,0-2.07,0Z" transform="translate(-716.23 -26.17)"/></svg>