<svg width="70" height="70" viewBox="0 0 70 70" fill="none" xmlns="http://www.w3.org/2000/svg">
<circle cx="35" cy="35" r="35" fill="#2FFF8F"/>
<circle cx="35" cy="35" r="31" fill="white"/>
<path d="M33.6182 49.56C29.7154 49.3754 26.0336 47.6937 23.3377 44.8642C20.6418 42.0347 19.139 38.2749 19.1414 34.3659C19.1414 25.9698 25.9615 19.1463 34.3535 19.1463C42.5173 19.1463 49.1599 25.5639 49.5402 33.6302L44.216 32.0322C43.8016 30.2738 42.9253 28.658 41.6778 27.3519C40.4302 26.0458 38.8566 25.0967 37.1197 24.6028C35.3827 24.1088 33.5454 24.088 31.7977 24.5424C30.05 24.9967 28.4553 25.9099 27.1785 27.1873C25.9016 28.4648 24.9889 30.0603 24.5348 31.8088C24.0806 33.5574 24.1015 35.3956 24.5951 37.1334C25.0888 38.8712 26.0374 40.4455 27.3429 41.6937C28.6484 42.9419 30.2634 43.8186 32.021 44.2332L33.6182 49.56V49.56ZM59.707 34.3659C59.707 35.1268 59.6816 35.8878 59.6056 36.6488L54.6109 35.1522C54.6363 34.8985 54.6363 34.6195 54.6363 34.3659C54.6363 23.1541 45.5597 14.0732 34.3535 14.0732C23.1472 14.0732 14.0707 23.1541 14.0707 34.3659C14.0707 45.5776 23.1472 54.6585 34.3535 54.6585C34.607 54.6585 34.8859 54.6585 35.1394 54.6332L36.6353 59.6302C35.8747 59.7063 35.1141 59.7317 34.3535 59.7317C20.3584 59.7317 9 48.3678 9 34.3659C9 20.3639 20.3584 9 34.3535 9C48.3486 9 59.707 20.3639 59.707 34.3659ZM50.1487 45.1717L59.707 41.9756L34.3535 34.3659L41.9595 59.7317L45.1541 50.1688L55.98 61L61 55.9776L50.1487 45.1717Z" fill="#2FFF8F"/>
</svg>
