<?xml version="1.0" encoding="utf-8"?>
<!-- Generator: Adobe Illustrator 23.0.1, SVG Export Plug-In . SVG Version: 6.00 Build 0)  -->
<svg version="1.1" id="Layer_1" xmlns="http://www.w3.org/2000/svg" xmlns:xlink="http://www.w3.org/1999/xlink" x="0px" y="0px"
	 viewBox="0 0 2000 396" style="enable-background:new 0 0 2000 396;" xml:space="preserve">
<style type="text/css">
	.st0{fill:none;stroke:#FFFFFF;stroke-width:3;stroke-miterlimit:10;}
	.st1{fill:#FFFFFF;}
</style>
<path class="st0" d="M-28,191.5c0,0,190.6-37,321.7-37s199.3,62,320.6,62s277.3-61,397.5-61s152.7,79,280.5,80s164.6-47,261-45
	s49.8,39,182,43s257.8-69,257.8-69"/>
<path class="st1" d="M61.4,142.9c0,0,0.6,13.2-2.8,20.8c-3.3,7.7-14.2,11.5-14.2,11.5s-3.2-6.4-0.3-15.1
	C47.1,151.4,61.4,142.9,61.4,142.9z"/>
<path class="st1" d="M178.4,126.9c0,0,0.6,13.2-2.8,20.8c-3.3,7.7-14.2,11.5-14.2,11.5s-3.2-6.4-0.3-15.1S178.4,126.9,178.4,126.9z"
	/>
<path class="st1" d="M285.5,120.4c0,0-0.3,13.2-4,20.7s-14.9,10.7-14.9,10.7s-2.8-6.6,0.6-15.1C270.7,128.1,285.5,120.4,285.5,120.4
	z"/>
<path class="st1" d="M392,130.1c0,0-2.5,13-7.4,19.8c-5,6.9-16.5,8.5-16.5,8.5s-1.6-6.9,3.2-14.9C376,135.6,392,130.1,392,130.1z"/>
<path class="st1" d="M480.8,154c0,0-3.5,12.8-9.1,19.3c-5.5,6.5-17.1,7.3-17.1,7.3s-1.1-7,4.4-14.6C464.5,158.4,480.8,154,480.8,154
	z"/>
<path class="st1" d="M555.5,175c0,0-3.5,12.8-9.1,19.3s-17.1,7.3-17.1,7.3s-1.1-7,4.4-14.6C539.2,179.4,555.5,175,555.5,175z"/>
<path class="st1" d="M634.7,182.4c0,0-1.6,13.1-6.1,20.2c-4.5,7.1-15.9,9.4-15.9,9.4s-2.1-6.8,2.1-15S634.7,182.4,634.7,182.4z"/>
<path class="st1" d="M719,173.6c0,0-0.4,13.2-4.3,20.6c-3.9,7.5-15,10.6-15,10.6s-2.7-6.6,0.8-15.1C704,181.1,719,173.6,719,173.6z"
	/>
<path class="st1" d="M799.1,157.6c0,0-0.4,13.2-4.3,20.6s-15,10.6-15,10.6s-2.7-6.6,0.8-15.1C784.2,165.1,799.1,157.6,799.1,157.6z"
	/>
<path class="st1" d="M898.7,136.6c0,0-0.4,13.2-4.3,20.6s-15,10.6-15,10.6s-2.7-6.6,0.8-15.1C883.8,144.1,898.7,136.6,898.7,136.6z"
	/>
<path class="st1" d="M999.5,121.6c0,0-0.4,13.2-4.3,20.6s-15,10.6-15,10.6s-2.7-6.6,0.8-15.1C984.5,129.1,999.5,121.6,999.5,121.6z"
	/>
<path class="st1" d="M1088.7,128.5c0,0-1.8,13.1-6.4,20.2c-4.6,7.1-16,9.2-16,9.2s-2-6.8,2.4-15
	C1073.1,134.7,1088.7,128.5,1088.7,128.5z"/>
<path class="st1" d="M1167.3,160.8c0,0-3.3,12.8-8.7,19.4c-5.4,6.6-17,7.5-17,7.5s-1.2-7,4.1-14.7
	C1151,165.4,1167.3,160.8,1167.3,160.8z"/>
<path class="st1" d="M1236.6,190.8c0,0-3.3,12.8-8.7,19.4c-5.4,6.6-17,7.5-17,7.5s-1.2-7,4.1-14.7
	C1220.3,195.4,1236.6,190.8,1236.6,190.8z"/>
<path class="st1" d="M1313.2,201.3c0,0-0.1,13.2-3.8,20.7s-14.7,10.9-14.7,10.9s-2.9-6.5,0.5-15.1
	C1298.4,209.2,1313.2,201.3,1313.2,201.3z"/>
<path class="st1" d="M1404.1,189.7c0,0,0.9,13.1-2.3,20.9c-3.1,7.7-13.9,11.8-13.9,11.8s-3.3-6.3-0.6-15.1
	S1404.1,189.7,1404.1,189.7z"/>
<path class="st1" d="M1490.7,163.7c0,0,0.9,13.1-2.3,20.9s-13.9,11.8-13.9,11.8s-3.3-6.3-0.6-15.1
	C1476.6,172.5,1490.7,163.7,1490.7,163.7z"/>
<path class="st1" d="M1581.2,159.8c0,0-1,11.5-4.6,17.8c-3.6,6.4-13,8.8-13,8.8s-1.9-5.8,1.4-13.2S1581.2,159.8,1581.2,159.8z"/>
<path class="st1" d="M1649.9,182c0,0-2.5,11.3-6.9,17.2c-4.4,6-14.1,7.3-14.1,7.3s-1.2-6,3.1-12.9
	C1636.4,186.7,1649.9,182,1649.9,182z"/>
<path class="st1" d="M1720.6,196.4c0,0-0.2,13.2-4,20.7s-14.9,10.7-14.9,10.7s-2.8-6.6,0.6-15.1
	C1705.7,204.1,1720.6,196.4,1720.6,196.4z"/>
<path class="st1" d="M1803.4,194.6c0,0,1.1,13.1-1.9,20.9c-3,7.8-13.7,12-13.7,12s-3.4-6.3-0.9-15.1
	C1789.4,203.6,1803.4,194.6,1803.4,194.6z"/>
<path class="st1" d="M1893.2,175.1c0,0,2.1,13-0.4,21c-2.4,8-12.8,12.8-12.8,12.8s-3.9-6.1-2-15
	C1879.9,184.9,1893.2,175.1,1893.2,175.1z"/>
<path class="st1" d="M1966.7,141.2c0,0,4.5,12.5,3.7,20.7c-0.9,8.2-10.1,14.7-10.1,14.7s-5-5.3-4.9-14.5
	C1955.5,153,1966.7,141.2,1966.7,141.2z"/>
<path class="st1" d="M45.2,182.9c0,0-0.6,13.2,2.8,20.8s14.2,11.5,14.2,11.5s3.2-6.4,0.3-15.1C59.5,191.4,45.2,182.9,45.2,182.9z"/>
<path class="st1" d="M160,166.9c0,0-0.6,13.2,2.8,20.8s14.2,11.5,14.2,11.5s3.2-6.4,0.3-15.1S160,166.9,160,166.9z"/>
<path class="st1" d="M268.8,160.4c0,0,0.3,13.2,4,20.7c3.8,7.5,14.9,10.7,14.9,10.7s2.8-6.6-0.6-15.1
	C283.7,168.1,268.8,160.4,268.8,160.4z"/>
<path class="st1" d="M366.7,167.1c0,0,2.5,13,7.4,19.8c5,6.9,16.5,8.5,16.5,8.5s1.6-6.9-3.2-14.9
	C382.7,172.6,366.7,167.1,366.7,167.1z"/>
<path class="st1" d="M451.4,188.5c0,0,0.4,13.2,4.3,20.6c3.9,7.5,15,10.6,15,10.6s2.7-6.6-0.8-15.1
	C466.4,196.1,451.4,188.5,451.4,188.5z"/>
<path class="st1" d="M523.8,210.7c0,0,0.6,13.2,4.6,20.6c4,7.4,15.1,10.4,15.1,10.4s2.6-6.6-1-15.1
	C538.8,218,523.8,210.7,523.8,210.7z"/>
<path class="st1" d="M612.2,221.4c0,0,1.6,13.1,6.1,20.2c4.5,7.1,15.9,9.4,15.9,9.4s2.1-6.8-2.1-15S612.2,221.4,612.2,221.4z"/>
<path class="st1" d="M701.9,211.6c0,0,0.4,13.2,4.3,20.6s15,10.6,15,10.6s2.7-6.6-0.8-15.1C716.9,219.1,701.9,211.6,701.9,211.6z"/>
<path class="st1" d="M783.4,197.8c0,0,2.1,13,7,20c4.8,7,16.3,8.8,16.3,8.8s1.8-6.8-2.8-14.9C799.2,203.6,783.4,197.8,783.4,197.8z"
	/>
<path class="st1" d="M879.7,176.9c0,0,2.2,13,7,20s16.3,8.8,16.3,8.8s1.8-6.8-2.8-14.9C895.6,182.6,879.7,176.9,879.7,176.9z"/>
<path class="st1" d="M979.2,162.6c0,0,0.4,13.2,4.3,20.6c3.9,7.5,15,10.6,15,10.6s2.7-6.6-0.8-15.1
	C994.1,170.1,979.2,162.6,979.2,162.6z"/>
<path class="st1" d="M1061.8,164.5c0,0-1.2,13.1,1.7,20.9c2.9,7.8,13.6,12.1,13.6,12.1s3.5-6.3,1.1-15.1
	C1075.7,173.6,1061.8,164.5,1061.8,164.5z"/>
<path class="st1" d="M1138.4,194.9c0,0-5.5,12.1-5.3,20.4s8.9,15.4,8.9,15.4s5.4-5,6-14.1C1148.6,207.5,1138.4,194.9,1138.4,194.9z"
	/>
<path class="st1" d="M1211.3,227.8c0,0,7,11.5,7.9,19.7c0.9,8.2-6.9,16.2-6.9,16.2s-6-4.4-7.8-13.3
	C1202.8,241.4,1211.3,227.8,1211.3,227.8z"/>
<path class="st1" d="M1293.2,239.5c0,0,10.4,9,13.8,16.7c3.5,7.6-1.4,17.4-1.4,17.4s-7.1-2.5-11.7-10.6
	C1289.4,254.8,1293.2,239.5,1293.2,239.5z"/>
<path class="st1" d="M1390.6,229.7c0,0,12.7,6,18.3,12.5c5.6,6.5,3.8,17.1,3.8,17.1s-7.6-0.6-14.4-7.2S1390.6,229.7,1390.6,229.7z"
	/>
<path class="st1" d="M1476.3,205.8c0,0,10.9,8.5,14.8,16c3.9,7.5-0.4,17.4-0.4,17.4s-7.3-2.2-12.3-10
	C1473.4,221.3,1476.3,205.8,1476.3,205.8z"/>
<path class="st1" d="M1562.3,194.6c0,0,8.4,8.5,11,15.3c2.6,6.8-1.9,14.8-1.9,14.8s-5.9-2.7-9.4-9.9
	C1558.4,207.5,1562.3,194.6,1562.3,194.6z"/>
<path class="st1" d="M1626.7,214.3c0,0,7.5,9.2,9.4,16.2s-3.4,14.6-3.4,14.6s-5.6-3.2-8.4-10.7S1626.7,214.3,1626.7,214.3z"/>
<path class="st1" d="M1702.2,235.6c0,0,10.6,8.9,14.2,16.4c3.6,7.6-1,17.4-1,17.4s-7.2-2.4-11.9-10.4
	C1698.7,251,1702.2,235.6,1702.2,235.6z"/>
<path class="st1" d="M1789.4,234.7c0,0,12.8,5.9,18.4,12.3s4.1,17,4.1,17s-7.6-0.5-14.5-7.1S1789.4,234.7,1789.4,234.7z"/>
<path class="st1" d="M1883.2,215c0,0,12.9,5.5,18.8,11.8c5.9,6.2,4.6,16.9,4.6,16.9s-7.6-0.3-14.7-6.7
	C1884.8,230.7,1883.2,215,1883.2,215z"/>
<path class="st1" d="M1963.7,184.3c0,0,13.5,4.1,20.2,9.7c6.6,5.6,6.7,16.3,6.7,16.3s-7.6,0.5-15.5-5
	C1967.2,199.7,1963.7,184.3,1963.7,184.3z"/>
</svg>
