<?xml version="1.0" encoding="utf-8"?>
<!-- Generator: Adobe Illustrator 23.0.1, SVG Export Plug-In . SVG Version: 6.00 Build 0)  -->
<svg version="1.1" id="Layer_1" xmlns="http://www.w3.org/2000/svg" xmlns:xlink="http://www.w3.org/1999/xlink" x="0px" y="0px"
	 viewBox="0 0 2000 396" style="enable-background:new 0 0 2000 396;" xml:space="preserve">
<style type="text/css">
	.st0{fill:#FFFFFF;}
	.st1{fill:url(#SVGID_1_);}
</style>
<path class="st0" d="M2.5,293.5c0,0,114.5-33.4,181-34c58.5-0.5,77.5-0.5,111,37c41,45.9,166.5-31.5,224-33s33.5,16.5,112,34
	s116.5-67.5,201-67s53.5,57.5,141,64s107.5-52.5,188-53s130,52,130,52c53.5,41.5,69.5-29.5,120-30s55.5,30.5,103,31
	s82.5-44.5,136-44s44.5,40.5,101,41s108.5-72.5,162-73s87,75,87,75v104H-0.5L2.5,293.5z"/>
<linearGradient id="SVGID_1_" gradientUnits="userSpaceOnUse" x1="-0.5" y1="335.9997" x2="1999.5" y2="335.9997">
	<stop  offset="0" style="stop-color:#2FFF8F"/>
	<stop  offset="1" style="stop-color:#2FFF8F"/>
</linearGradient>
<path class="st1" d="M2.5,344.6c0,0,112.5-29.8,179-30.1c58.5-0.3,79.5,12.6,113,31.7c41,23.3,165.5-30.9,223-31.7
	s34.5,23.3,113,32.2c78.5,8.9,115.5-56.4,200-56.2s54.5,51.3,142,54.6s106.5-52.4,187-52.6s131,52.1,131,52.1
	c32.5,28.4,73.5-31.9,124-32.1s51.5,32.4,99,32.6s78.5-50.9,132-50.6s48.5,48.9,105,49.1c56.5,0.3,107.5-68.9,161-69.1
	s88,70.1,88,70.1v52.9H-0.5L2.5,344.6z"/>
</svg>
